<?xml version="1.0" encoding="utf-8"?>
<!-- Generator: Adobe Illustrator 19.2.1, SVG Export Plug-In . SVG Version: 6.00 Build 0)  -->
<svg version="1.1" id="Layer_1" xmlns="http://www.w3.org/2000/svg" xmlns:xlink="http://www.w3.org/1999/xlink" x="0px" y="0px"
	 viewBox="0 0 181.3 200.4" style="enable-background:new 0 0 181.3 200.4;" xml:space="preserve">
<style type="text/css">
	.st0{fill:#FFFFFF;}
	.st1{fill:#0E113B;}
	.st2{fill:url(#SVGID_1_);stroke:#0E113B;stroke-width:3;stroke-linejoin:bevel;stroke-miterlimit:10;}
	.st3{fill:#8ABACA;}
	.st4{fill:#95728A;stroke:#0E113B;stroke-width:3;stroke-linejoin:bevel;stroke-miterlimit:10;}
	.st5{fill:#5E634E;stroke:#0E113B;stroke-width:3;stroke-linejoin:bevel;stroke-miterlimit:10;}
	.st6{fill:#0E113B;stroke:#0E113B;stroke-width:2.6952;stroke-linejoin:bevel;stroke-miterlimit:10;}
	.st7{fill:#F6DC7A;stroke:#0E113B;stroke-width:3;stroke-linejoin:bevel;stroke-miterlimit:10;}
	.st8{fill:none;stroke:#0E113B;stroke-width:3;stroke-linejoin:bevel;stroke-miterlimit:10;}
	.st9{fill:#5C3C6F;}
	.st10{fill:#FFFBEE;stroke:#0E113B;stroke-width:3;stroke-linejoin:bevel;stroke-miterlimit:10;}
	.st11{fill:#2F3063;}
	.st12{fill:none;stroke:#EE276C;stroke-width:3;stroke-linecap:round;stroke-linejoin:bevel;stroke-miterlimit:10;}
	.st13{fill:none;stroke:#76C9B7;stroke-width:3;stroke-linecap:round;stroke-linejoin:bevel;stroke-miterlimit:10;}
</style>
<g>
	<g>
		<path class="st0" d="M89,199.5c-1.5-1.8-4.4-6.5-5.6-8.5l-4.4,0.8l-1.7-1l-2.9-7.9c-2.3-0.2-8-0.6-9.9-0.6l-1.5-1.6l0.6-8.8
			l-9.1-0.3l-1.4-1.8l3.5-17.5l1.3-1.2c9.7-1.4,20.3-2.1,32.4-2.1c10.7,0,21.6,0.5,32.2,1l0.1,0l1.4,1.3l2,19.2l-1.4,1.7l-7.9,0.6
			l-2.1,11.2l-1.8,1.2l-7.6-2l-2.6,8.9l-2.6,0.6l-1.8-2l-6.9,8.6L89,199.5z"/>
		<path class="st1" d="M90.2,150.6c10.7,0,21.5,0.5,32.3,1l2,19.2l-9,0.7l-2.3,12.3l-9-2.3l-3,10.3l-3-3.3l-8,10
			c-1.8-2.2-6-9.2-6-9.2l-5.4,1l-3.3-8.8c0,0-8.5-0.7-11-0.7c0,0,0.7-10.3,0.7-10.3l-10.7-0.3l3.5-17.5
			C68.7,151.2,79.4,150.6,90.2,150.6 M90.2,147.6c-12.2,0-22.8,0.7-32.6,2.1l-2.5,2.4l-3.5,17.5l2.8,3.6l7.6,0.2l-0.1,2.1l-0.2,3.6
			c-0.2,2.4-0.2,2.9,0.7,3.9l2.2,0.9c1.6,0,5.9,0.3,8.9,0.5l2.6,7l3.4,1.9l3.3-0.6c1.4,2.3,3.8,6.1,5.2,7.8l4.7,0l5.8-7.2l0.6,0.7
			l5.1-1.2l2.2-7.5l6.2,1.6l3.7-2.3l1.9-10.1l6.7-0.5l2.8-3.3l-2-19.2l-2.8-2.7l-0.2,0C111.9,148.2,100.9,147.6,90.2,147.6
			L90.2,147.6z"/>
	</g>
	<radialGradient id="SVGID_1_" cx="90.5659" cy="95.1978" r="95.0313" gradientUnits="userSpaceOnUse">
		<stop  offset="0.6783" style="stop-color:#95728A"/>
		<stop  offset="0.8305" style="stop-color:#BD8B96"/>
	</radialGradient>
	<polyline class="st2" points="27.6,126.2 0.6,113.7 22.8,107.1 2.1,93.7 27.1,89.4 12.4,47.3 50.8,45.1 90.1,1.1 130.1,41.4 
		167.6,41.5 160.7,88.9 180.5,92.2 162.6,103 180.5,113.4 156.1,125.2 	"/>
	<path class="st3" d="M65.7,164.2c2.4-1.5,5.6-1.2,8.3-0.4c2.8,0.8,5.5,1.9,8.4,1.6c3.5-0.3,6.8-2.7,10.3-2.6
		c2.5,0.1,4.7,1.3,7.2,1.6c1.7,0.2,3.4-0.1,4.9-0.8c0.8-0.4,1.6-0.9,2.1-1.7c0.9-1.3,0.9-3.2,0.3-4.7c-0.7-1.5-1.9-2.6-3.3-3.6
		c-4.8-3.3-11.1-3.6-16.9-3.1c-4.4,0.4-9,1.4-12,4.6"/>
	<path class="st4" d="M152.2,128l13.9,13.1l-21,9.7c-4.8,0.9-9.2,1.1-14.1,0.9c-3.3-0.1-6.6-0.4-9.6-1.9c-4.8-2.5-7.6-8-7.6-13.4
		c0-2.3,0.4-4.7,1.6-6.7c2-3.4,6-5.1,9.8-6c9.8-2.4,20.6-0.6,29.1,4.9"/>
	<path class="st4" d="M29.9,128L16,141.1l21,9.7c3.8,2.7,7.7,0.9,12.3-0.1c3.8-0.8,7.7-2.1,10.8-4.6c3-2.5,5.1-6.5,4.4-10.4
		c-0.4-2.1-1.5-3.9-2.7-5.6c-0.7-1-1.5-2.1-2.7-2.6c-0.8-0.3-1.7-0.4-2.6-0.4c-8.9-0.3-17.9-0.5-26.8-0.6"/>
	<polygon class="st5" points="160.5,115.7 133.4,93.1 125.4,138.8 148.8,137.8 	"/>
	
		<rect x="155.5" y="121.6" transform="matrix(-0.8843 -0.467 0.467 -0.8843 239.5402 315.1403)" class="st6" width="6.6" height="12.6"/>
	<polygon class="st5" points="20.2,115.7 47.3,93.1 55.3,138.8 31.9,137.8 	"/>
	
		<rect x="18.6" y="121.6" transform="matrix(0.8843 -0.467 0.467 0.8843 -57.1884 25.0149)" class="st6" width="6.6" height="12.6"/>
	<path class="st7" d="M45.1,94.7l10.5-20l34.5,9.5l34.5-11l11,22c2.6,7.8,4.5,15.3,1.9,23.1c-2.3,6.8-8.2,11.8-14,16.1
		c-10,7.4-21.1,14.3-33.6,15.4c-17.3,1.5-34-8.9-44.2-23c-4.4-6.1-8-13.3-7.1-20.8"/>
	<g>
		<path class="st0" d="M63.2,164.3l1.3-4.1l-30.6,5.6l-1.4-2.5l4.1-4.8L11,156.2l-0.1-3l20.8-4l24.3-11.4c4.4-3.6,9.7-5.4,15.3-5.4
			c3.1,0,6.1,0.6,9.1,1.7c2.3,0.8,4,1.9,5.3,3.2c3.6,3.5,5.1,8.8,4.5,15.6l-0.8,1.2l-24,12L63.2,164.3z"/>
		<path class="st1" d="M71.2,133.9c2.9,0,5.7,0.5,8.6,1.6c1.8,0.7,3.5,1.5,4.8,2.8c3.8,3.7,4.5,9.2,4,14.4l-24,12l2-6.5l-33,6l6-7
			l-28.5-2.5l21-4l24.6-11.6C61,135.6,66,133.9,71.2,133.9 M71.2,130.9c-5.9,0-11.5,2-16.1,5.6l-23.9,11.3l-20.6,3.9l0.3,5.9l22.7,2
			l-2.2,2.6l2.8,4.9l28.1-5.1l-0.5,1.8l4.2,3.6l24-12l1.6-2.4c0.7-7.3-1-13-4.9-16.8c-1.5-1.4-3.4-2.6-5.9-3.5
			C77.7,131.5,74.5,130.9,71.2,130.9L71.2,130.9z"/>
	</g>
	<g>
		<path class="st0" d="M92.1,154.1l-0.8-1.2c-0.6-6.9,0.9-12.1,4.5-15.6c1.3-1.3,3.1-2.3,5.3-3.2c3-1.1,6-1.7,9.1-1.7
			c5.6,0,10.9,1.9,15.3,5.4l24.3,11.4l20.8,4l-0.1,3l-25.6,2.2l4.1,4.8l-1.4,2.5l-30.6-5.6l1.3,4.1l-2.1,1.8L92.1,154.1z"/>
		<path class="st1" d="M110.1,133.9c5.2,0,10.3,1.7,14.5,5.2l24.6,11.6l21,4l-28.5,2.5l6,7l-33-6l2,6.5l-24-12
			c-0.5-5.3,0.2-10.7,4-14.4c1.3-1.3,3.1-2.2,4.8-2.8C104.4,134.4,107.3,133.9,110.1,133.9 M110.1,130.9L110.1,130.9
			c-3.2,0-6.5,0.6-9.6,1.7c-2.5,0.9-4.4,2.1-5.9,3.5c-3.9,3.8-5.6,9.5-4.9,16.8l1.6,2.4l24,12l4.2-3.6l-0.5-1.8l28.1,5.1l2.8-4.9
			l-2.2-2.6l22.7-2l0.3-5.9l-20.6-3.9l-23.9-11.3C121.6,132.9,116.1,130.9,110.1,130.9L110.1,130.9z"/>
	</g>
	<line class="st8" x1="89.1" y1="85" x2="90.1" y2="0.4"/>
	<line class="st8" x1="55.5" y1="74" x2="50.5" y2="45.4"/>
	<line class="st8" x1="26.5" y1="88.7" x2="44.5" y2="95.4"/>
	<line class="st8" x1="124.1" y1="73" x2="130.1" y2="41.4"/>
	<line class="st8" x1="160.5" y1="89" x2="135.8" y2="95.7"/>
	<line class="st8" x1="163.5" y1="102.7" x2="145.8" y2="103.7"/>
	<line class="st8" x1="20.5" y1="106.4" x2="29.1" y2="108"/>
	<polyline class="st9" points="56.8,73.8 55.9,47.6 61.6,67.9 61.4,53.5 66.1,69.9 66.1,41 71.6,72.2 71.6,45.8 75.7,64.2 
		79.1,31.3 80.9,67.6 85.6,57.3 88,82.2 56.8,73.8 	"/>
	<polyline class="st9" points="121.9,73.1 122.8,47.9 117.1,68.3 117.2,53.8 112.6,70.3 112.5,41.4 107.1,72.6 107,46.1 103,64.5 
		99.5,31.6 97.8,68 93,57.6 90.7,82.5 121.9,73.1 	"/>
	<polyline class="st9" points="127.5,62.7 135.8,48.3 131.6,63.3 141.1,53.6 138.8,59.9 143.9,57.6 138.2,67.6 157.3,56.3 142,71.2 
		149,68.9 138.4,77.6 155.8,71.6 137.1,83.1 147.9,82.7 143.1,86.1 150.3,86.1 144.8,89.9 148.6,91.3 136.5,94.5 125.6,72 
		127.3,62.9 	"/>
	<path class="st9" d="M42.2,86l-10.8-0.4l4.9,3.4h-6c4.8,1.6,9.4,3.5,14.1,5.2L53.7,75L52,65.9l-0.2-0.2l-8.3-14.4l4.2,15.1
		l-9.6-9.8l2.3,6.4l-5.1-2.3l5.7,10L22,59.3l15.3,14.9l-7-2.3l10.6,8.7l-17.4-5.9L42.2,86z"/>
	<polyline class="st9" points="147.2,94.1 158.9,94.1 152.6,96.4 164.4,95.8 157.5,99 161.8,100.7 146.9,101.8 139.4,96.4 
		146.9,94.1 	"/>
	<polyline class="st9" points="35.8,94.2 24.1,94.2 30.4,96.5 18.6,95.9 25.5,99 21.2,100.8 36.1,101.9 43.6,96.5 36.1,94.2 	"/>
	<path class="st5" d="M65.3,88l24.5,6.3l22.7-5.7c0.4,4.2-2,8.2-5,11.1c-3,2.9-6.8,4.9-10.3,7.2c-2.3,1.5-4.5,3.2-7.1,4.1
		s-5.7,1.1-7.9-0.4c-0.8-0.6-1.5-1.3-2.2-2.1c-3.3-3.6-6.6-7.1-9.8-10.7c-2.1-2.3-4.4-4.9-4.3-8.1"/>
	<g>
		<circle class="st10" cx="63.7" cy="113.4" r="25.6"/>
		<circle class="st1" cx="63.7" cy="113.4" r="18.9"/>
		<path class="st11" d="M55.3,116.5c-0.2-5.4,4.7-9.9,9.9-9.9c2,0,3.3,0.8,5.1,1.4c2.3,0.8,2.5,0.3,4.5-1.3c0.3-0.3,0.7-0.6,0.7-1
			c0.1-0.5-0.2-1-0.6-1.3c-0.9-1.1-1.8-2.1-3-2.8c-1.3-0.8-2.7-1.2-4.2-1.4c-5.3-1-10.8-1.2-14.7,3c-3.4,3.6-4.9,9.3-3.8,14.1
			c0.3,1.5,0.9,3.1,2.1,4.1c0.1,0.1,0.3,0.3,0.5,0.3c0.3,0.1,0.5-0.1,0.8-0.2c0.9-0.4,2.9-0.9,3.3-1.8
			C56.2,119.2,55.4,117.1,55.3,116.5z"/>
		<path class="st12" d="M49.4,113.8c0-8.1,6.6-14.7,14.7-14.7"/>
		<path class="st12" d="M70,100.4c0.3,0.1,0.6,0.3,0.9,0.4"/>
		<path class="st13" d="M65.1,127.6c-0.6,0.1-1.2,0.1-1.8,0.1"/>
		<path class="st13" d="M77.4,113.6c0,5.4-3,10.1-7.5,12.5"/>
		<path class="st13" d="M58.1,126.7c-0.5-0.2-1-0.4-1.4-0.6"/>
		<circle class="st10" cx="117.5" cy="113.4" r="25.6"/>
		<circle class="st1" cx="117.5" cy="113.4" r="18.9"/>
		<path class="st13" d="M119.7,127.5c-0.8,0.1-1.7,0.2-2.5,0.2"/>
		<path class="st11" d="M110.2,116.5c-0.2-5.4,4.7-9.9,9.9-9.9c2,0,3.3,0.8,5.1,1.4c2.3,0.8,2.5,0.3,4.5-1.3c0.3-0.3,0.7-0.6,0.7-1
			c0.1-0.5-0.2-1-0.6-1.3c-0.9-1.1-1.8-2.1-3-2.8c-1.3-0.8-2.7-1.2-4.2-1.4c-5.3-1-10.8-1.2-14.7,3c-3.4,3.6-4.9,9.3-3.8,14.1
			c0.3,1.5,0.9,3.1,2.1,4.1c0.1,0.1,0.3,0.3,0.5,0.3c0.3,0.1,0.5-0.1,0.8-0.2c0.9-0.4,2.9-0.9,3.3-1.8
			C111.1,119.2,110.3,117.1,110.2,116.5z"/>
		<path class="st13" d="M129,121.3c-1,1.5-2.2,2.8-3.7,3.8"/>
		<path class="st13" d="M131.3,113.6c0,0.4,0,0.7,0,1.1"/>
		<path class="st12" d="M103.2,113.8c0-8.1,6.6-14.7,14.7-14.7"/>
		<path class="st12" d="M123.7,100.4c0.3,0.1,0.6,0.3,0.9,0.4"/>
	</g>
</g>
</svg>
