<?xml version="1.0" encoding="utf-8"?>
<!-- Generator: Adobe Illustrator 19.2.1, SVG Export Plug-In . SVG Version: 6.00 Build 0)  -->
<svg version="1.1" id="Layer_1" xmlns="http://www.w3.org/2000/svg" xmlns:xlink="http://www.w3.org/1999/xlink" x="0px" y="0px"
	 viewBox="0 0 250.8 42.6" style="enable-background:new 0 0 250.8 42.6;" xml:space="preserve">
<style type="text/css">
	.st0{fill:#0E113B;}
</style>
<g>
	<path class="st0" d="M38.7,41.8V24.1c0-1.8-0.9-3.4-3.4-3.4c-2.5,0-3.1,0.3-4.6,1.1v20H19.3V24.1c0-1.8-0.9-3.4-3.4-3.4
		c-2.4,0-3.2,0.4-4.6,1.1v20H0V11.5h11.3V15c1.3-1.7,5.1-4.2,10-4.2c4.3,0,7.3,1.6,8.7,5.3c1.8-2.6,5.7-5.3,10.6-5.3
		c5.6,0,9.3,2.8,9.3,9.1v22H38.7z"/>
	<path class="st0" d="M52.9,26.7c0-8.5,6.3-15.9,17-15.9c10.8,0,17.1,7.4,17.1,15.9c0,8.5-6.3,15.9-17.1,15.9
		C59.2,42.6,52.9,35.1,52.9,26.7z M75.4,26.7c0-3.3-1.9-5.9-5.5-5.9c-3.4,0-5.4,2.6-5.4,5.9c0,3.4,1.9,6,5.4,6
		C73.4,32.6,75.4,30,75.4,26.7z"/>
	<path class="st0" d="M88.9,41.8V11.5h11.3v3.3c1.9-2.2,5.8-4.2,9.3-4.2v10.8c-0.6-0.2-1.5-0.3-2.6-0.3c-2.4,0-5.5,0.6-6.7,2.1v18.6
		H88.9z"/>
	<path class="st0" d="M131.9,41.8v-3.2c-2.6,2.9-5.5,4-8.5,4c-7.3,0-13.4-5.5-13.4-15.9c0-10,5.9-15.9,13.4-15.9
		c3.1,0,6.1,1.1,8.5,4v-3.2h11.4v30.3H131.9z M131.9,31.6v-9.8c-1.2-0.4-3.2-0.9-4.7-0.9c-3.1,0-5.6,2.1-5.6,5.8s2.6,6,5.6,6
		C128.7,32.6,130.4,32.5,131.9,31.6z"/>
	<path class="st0" d="M167.6,41.8V25.1c0-3.1-1.7-4.3-4.4-4.3c-2.6,0-3.2,0.4-4.8,1.1v20h-11.3V11.5h11.3V15c1.8-2,5.1-4.2,10.4-4.2
		c7,0,10.1,4.3,10.1,9.5v21.5H167.6z"/>
	<path class="st0" d="M203.4,41.8v-3.2c-2.6,2.9-5.5,4-8.5,4c-7.3,0-13.4-5.5-13.4-15.9c0-10,5.9-15.9,13.4-15.9
		c3.1,0,6.1,1.1,8.5,4V0h11.3v41.8H203.4z M203.4,31.6v-9.8c-1.3-0.6-3.2-1.1-4.7-1.1c-3.1,0-5.6,2.1-5.6,5.9s2.6,6,5.6,6
		C200.2,32.6,202.3,32.5,203.4,31.6z"/>
	<path class="st0" d="M239.5,41.8v-3.2c-2.6,2.9-5.5,4-8.5,4c-7.3,0-13.4-5.5-13.4-15.9c0-10,5.9-15.9,13.4-15.9
		c3.1,0,6.1,1.1,8.5,4v-3.2h11.4v30.3H239.5z M239.5,31.6v-9.8c-1.3-0.5-3.2-1-4.7-1c-3.1,0-5.6,2.1-5.6,5.8s2.6,6,5.6,6
		C236.3,32.6,238.4,32.5,239.5,31.6z"/>
</g>
</svg>
